# xmcd
#
# Track frame offsets:
#	150
#	20313
#	37929
#	53567
#	71474
#	92300
#	106139
#	126418
#	140345
#	153079
#	168434
#	185320
#	201739
#	212250
#	238901
#	256719
#	269187
#	287668
#	304776
#	321891
#	334176
#
# Disc length: 4608 seconds
#
# Revision: 0
# Processed by: cddbd v1.5PL3 Copyright (c) Steve Scherf et al.
# Submitted via: audiograbber 1.82.01
#
DISCID=2611fe15
DTITLE=Charles Aznavour - Grand collection
DYEAR=1900
DGENRE=
TTITLE0=Le droit des femmes
TTITLE1=An piano bar
TTITLE2=La yiddishe mamma
TTITLE3=De t'avoir aimme
TTITLE4=Yesterday when I was young (feat. D. Reeves)
TTITLE5=Plus bleu que tes yeux (duet with Edith Piaf)
TTITLE6=Me voila seul
TTITLE7=J'en dedius que je t'aime
TTITLE8=Parce que
TTITLE9=Je m'vouais deja
TTITLE10=L'amour
TTITLE11=Qui?
TTITLE12=For me formidable
TTITLE13=Les plaisirs demodes
TTITLE14=Mourir d'aimer
TTITLE15=Pour faire une jam
TTITLE16=La boheme
TTITLE17=La mamamma
TTITLE18=Two guitars
TTITLE19=Ois - Moi que tu m'aimes
TTITLE20=Gitana - Gitana
EXTD=
EXTT0=
EXTT1=
EXTT2=
EXTT3=
EXTT4=
EXTT5=
EXTT6=
EXTT7=
EXTT8=
EXTT9=
EXTT10=
EXTT11=
EXTT12=
EXTT13=
EXTT14=
EXTT15=
EXTT16=
EXTT17=
EXTT18=
EXTT19=
EXTT20=
PLAYORDER=
